<svg width="700" height="300" viewBox="0 0 700 300" fill="none" xmlns="http://www.w3.org/2000/svg">
<rect width="700" height="300" rx="48" fill="#E0E0E0"/>
<path fill-rule="evenodd" clip-rule="evenodd" d="M507.029 107.029C500 114.059 500 125.373 500 148V152C500 174.627 500 185.941 507.029 192.971C514.059 200 525.373 200 548 200H552C574.627 200 585.941 200 592.971 192.971C600 185.941 600 174.627 600 152V148C600 125.373 600 114.059 592.971 107.029C585.941 100 574.627 100 552 100H548C525.373 100 514.059 100 507.029 107.029ZM516.875 130.417C517.417 156.417 530.417 172.042 553.208 172.042H554.5V157.167C562.875 158 569.208 164.125 571.75 172.042H583.584C580.334 160.208 571.791 153.667 566.458 151.167C571.791 148.083 579.291 140.584 581.083 130.417H570.333C567.999 138.667 561.084 146.167 554.5 146.875V130.417H543.75V159.25C537.083 157.583 528.667 149.5 528.292 130.417H516.875Z" fill="white"/>
<path fill-rule="evenodd" clip-rule="evenodd" d="M307.029 107.029C300 114.059 300 125.373 300 148V152C300 174.627 300 185.941 307.029 192.971C314.059 200 325.373 200 348 200H352C374.627 200 385.941 200 392.971 192.971C400 185.941 400 174.627 400 152V148C400 125.373 400 114.059 392.971 107.029C385.941 100 374.627 100 352 100H348C325.373 100 314.059 100 307.029 107.029ZM316.875 130.417C317.417 156.417 330.417 172.042 353.208 172.042H354.5V157.167C362.875 158 369.208 164.125 371.75 172.042H383.584C380.334 160.208 371.791 153.667 366.458 151.167C371.791 148.083 379.291 140.584 381.083 130.417H370.333C367.999 138.667 361.084 146.167 354.5 146.875V130.417H343.75V159.25C337.083 157.583 328.667 149.5 328.292 130.417H316.875Z" fill="black"/>
<path d="M100 148C100 125.373 100 114.059 107.029 107.029C114.059 100 125.373 100 148 100H152C174.627 100 185.941 100 192.971 107.029C200 114.059 200 125.373 200 148V152C200 174.627 200 185.941 192.971 192.971C185.941 200 174.627 200 152 200H148C125.373 200 114.059 200 107.029 192.971C100 185.941 100 174.627 100 152V148Z" fill="#0077FF"/>
<path d="M153.208 172.042C130.417 172.042 117.417 156.417 116.875 130.417H128.292C128.667 149.5 137.083 157.584 143.75 159.25V130.417H154.5V146.875C161.084 146.167 167.999 138.667 170.333 130.417H181.083C179.291 140.584 171.791 148.084 166.458 151.167C171.791 153.667 180.333 160.209 183.583 172.042H171.75C169.208 164.125 162.875 158 154.5 157.167V172.042H153.208Z" fill="white"/>
</svg>
