<?xml version="1.0" encoding="UTF-8"?>
<!DOCTYPE svg PUBLIC "-//W3C//DTD SVG 1.1//EN" "http://www.w3.org/Graphics/SVG/1.1/DTD/svg11.dtd">
<!-- Creator: CorelDRAW X6 -->
<svg xmlns="http://www.w3.org/2000/svg" xml:space="preserve" width="71.77mm" height="30mm" version="1.1" style="shape-rendering:geometricPrecision; text-rendering:geometricPrecision; image-rendering:optimizeQuality; fill-rule:evenodd; clip-rule:evenodd"
viewBox="0 0 7177 3000"
 xmlns:xlink="http://www.w3.org/1999/xlink">
 <defs>
  <style type="text/css">
   <![CDATA[
    .fil2 {fill:#898989}
    .fil1 {fill:#6E7071}
    .fil3 {fill:#E8462F}
    .fil0 {fill:#898989;fill-rule:nonzero}
   ]]>
  </style>
 </defs>
 <g id="Слой_x0020_1">
  <metadata id="CorelCorpID_0Corel-Layer"/>
  <g id="_-1955084896">
   <path class="fil0" d="M2102 738l-100 314c-9,26 -20,43 -33,51 -14,9 -36,13 -67,13l0 -53c17,0 28,-3 36,-8 7,-6 13,-16 17,-31l9 -31 -83 -255 65 0 46 174 45 -174 65 0zm237 378l-59 0 0 -325 -75 0 0 325 -59 0 0 -378 193 0 0 378zm267 -263c0,40 -8,69 -23,87 -16,18 -40,28 -74,28l-36 0 0 148 -59 0 0 -378 95 0c34,0 58,9 74,27 15,19 23,48 23,88zm-68 46c6,-10 8,-26 8,-46 0,-21 -2,-36 -8,-46 -6,-11 -16,-16 -31,-16l-34 0 0 123 34 0c15,0 25,-5 31,-15zm317 217l-62 0 -16 -75 -88 0 -14 75 -63 0 93 -378 58 0 92 378zm-89 -129l-32 -158 -33 158 65 0zm327 21c0,22 -1,39 -5,52 -3,12 -10,23 -19,32 -16,16 -41,24 -74,24l-94 0 0 -378 94 0c34,0 58,7 73,23 9,9 16,19 19,30 4,12 5,27 5,48 0,29 -7,51 -21,65 -6,6 -13,11 -20,14 8,4 15,8 21,14 14,14 21,40 21,76zm-59 -5c0,-21 -4,-36 -11,-45 -7,-9 -18,-14 -34,-14l-29 0 0 118 29 0c16,0 28,-4 35,-13 6,-9 10,-24 10,-46zm-1 -161c0,-18 -3,-31 -10,-39 -7,-8 -18,-12 -33,-12l-30 0 0 103 30 0c15,0 26,-4 33,-12 7,-9 10,-22 10,-40zm327 274l-60 0 0 -325 -60 0 0 163c0,35 -2,64 -7,87 -5,22 -12,39 -22,49 -9,11 -19,18 -29,21 -10,3 -23,5 -38,5l-18 0 0 -54 6 0c6,0 11,0 16,-1 4,-1 8,-4 13,-8 5,-5 9,-11 12,-19 3,-8 5,-19 7,-33 2,-15 3,-33 3,-54l0 -209 177 0 0 378zm122 0l-63 0 57 -168c-17,-9 -28,-21 -35,-37 -6,-16 -9,-37 -9,-62 0,-39 7,-68 22,-85 15,-18 40,-26 74,-26l96 0 0 378 -60 0 0 -155 -33 0 -49 155zm17 -310c-5,10 -8,25 -8,43 0,19 3,33 8,43 5,10 14,15 29,15l36 0 0 -116 -36 0c-15,0 -24,5 -29,15zm259 310l-60 0 0 -378 60 0 0 165 38 0c1,-39 3,-68 6,-88 4,-20 11,-36 22,-49 18,-22 42,-33 73,-33 31,0 55,11 74,33 12,14 19,31 22,54 4,22 5,57 5,107 0,49 -1,85 -5,107 -3,22 -10,40 -22,54 -19,21 -43,32 -74,32 -31,0 -55,-11 -73,-32 -11,-13 -18,-29 -22,-48 -3,-19 -5,-47 -6,-83l-38 0 0 159zm178 -104c2,-19 3,-47 3,-85 0,-38 -1,-66 -3,-85 -1,-19 -5,-32 -10,-41 -6,-9 -16,-14 -29,-14 -13,0 -22,5 -28,14 -9,14 -13,56 -13,126 0,69 4,111 13,125 6,10 15,15 28,15 13,0 23,-5 29,-15 5,-8 9,-22 10,-40zm412 180l0 -76 -285 0 0 -378 60 0 0 324 65 0 0 -324 60 0 0 324 65 0 0 -324 59 0 0 324 32 0 0 130 -56 0zm326 -76l-62 0 -16 -75 -87 0 -15 75 -63 0 93 -378 58 0 92 378zm-89 -129l-32 -158 -33 158 65 0zm182 129l-62 0 56 -168c-16,-9 -28,-21 -34,-37 -7,-16 -10,-37 -10,-62 0,-39 7,-68 22,-85 16,-18 40,-26 75,-26l95 0 0 378 -59 0 0 -155 -34 0 -49 155zm17 -310c-5,10 -8,25 -8,43 0,19 3,33 8,43 5,10 15,15 29,15l37 0 0 -116 -37 0c-14,0 -24,5 -29,15zm513 310l-66 0 -92 -197 85 -181 63 0 -87 178 97 200zm-159 0l-60 0 0 -378 60 0 0 378zm386 -296c4,22 5,57 5,107 0,49 -1,85 -5,107 -3,22 -10,40 -23,54 -18,21 -42,32 -73,32 -31,0 -55,-11 -73,-32 -12,-14 -19,-33 -23,-55 -3,-22 -5,-57 -5,-106 0,-49 2,-85 5,-107 4,-22 11,-40 23,-54 18,-22 42,-33 73,-33 31,0 55,11 73,33 13,14 20,31 23,54zm-57 192c2,-19 3,-47 3,-85 0,-38 -1,-66 -3,-85 -1,-19 -5,-32 -10,-41 -6,-9 -16,-14 -29,-14 -13,0 -22,5 -28,14 -9,14 -13,56 -13,126 0,69 4,111 13,125 6,10 15,15 28,15 13,0 23,-5 29,-15 5,-8 9,-22 10,-40zm381 104l-60 0 0 -236 -52 155 -33 0 -50 -152 0 233 -60 0 0 -378 54 0 74 198 72 -198 55 0 0 378zm266 0l-59 0 0 -325 -75 0 0 325 -59 0 0 -378 193 0 0 378zm289 0l-63 0 -15 -75 -88 0 -15 75 -62 0 93 -378 58 0 92 378zm-89 -129l-33 -158 -32 158 65 0zm327 129l-59 0 0 -165 -74 0 0 165 -60 0 0 -378 60 0 0 159 74 0 0 -159 59 0 0 378zm127 0l-52 0 0 -378 59 0 0 231 85 -231 53 0 0 378 -60 0 0 -232 -85 232zm267 0l-63 0 57 -168c-17,-9 -28,-21 -35,-37 -6,-16 -9,-37 -9,-62 0,-39 7,-68 22,-85 15,-18 40,-26 74,-26l96 0 0 378 -60 0 0 -155 -33 0 -49 155zm17 -310c-5,10 -8,25 -8,43 0,19 3,33 8,43 5,10 14,15 29,15l36 0 0 -116 -36 0c-15,0 -24,5 -29,15z"/>
   <g>
    <path class="fil1" d="M4285 1498l278 0 -267 262 268 300 250 -300 -246 -262 283 0 188 223 0 -223 222 0 0 223 187 -223 284 0 -247 262 280 335 -294 0 -210 -272 0 272 -222 0 0 -272 -210 272 -529 0 -229 -275 0 275 -222 0 0 -597 222 0 0 226 206 -226 8 0zm1784 -14c10,0 21,0 34,0 11,0 22,1 31,1l0 0c20,1 41,4 65,8 12,1 23,4 33,6 11,2 21,5 30,8 10,3 19,7 29,11 9,5 18,9 28,15l0 0c9,6 18,12 25,18 8,7 16,14 22,21 7,8 12,16 18,26 5,9 9,19 13,30l0 0c4,11 7,22 9,35 2,12 3,24 3,37l0 20 -225 0 -3 -17c-2,-13 -6,-25 -11,-34 -5,-8 -11,-15 -18,-20 -9,-5 -19,-10 -30,-12 -11,-3 -25,-5 -40,-5 -46,0 -79,13 -101,39 -22,27 -34,69 -34,126 0,26 3,49 10,70 6,19 15,36 28,51 12,14 26,24 43,31 16,8 36,11 58,11 26,0 47,-6 64,-19 16,-12 29,-32 37,-58l4 -14 229 0 -2 21c-1,17 -3,33 -8,48 -4,15 -10,30 -18,43 -7,13 -16,25 -25,36 -10,11 -20,20 -32,28 -11,8 -23,15 -36,22 -13,6 -27,12 -42,17 -15,5 -29,9 -43,12 -15,3 -30,6 -44,8 -15,2 -29,3 -44,4 -16,1 -32,1 -47,1 -19,0 -37,-1 -55,-2 -18,-2 -36,-4 -53,-7 -17,-3 -34,-7 -50,-13 -16,-5 -32,-11 -48,-19 -16,-7 -30,-16 -44,-25 -14,-10 -26,-21 -38,-32 -11,-12 -22,-25 -31,-40 -9,-15 -17,-31 -23,-48 -7,-18 -12,-37 -15,-57 -4,-20 -6,-40 -6,-62 0,-44 6,-83 18,-119 6,-18 13,-34 22,-50 8,-15 18,-29 28,-42 11,-12 23,-24 36,-34 13,-11 27,-20 42,-28 14,-8 30,-15 46,-21 16,-7 33,-11 50,-15 17,-4 35,-7 54,-9 19,-1 38,-2 57,-2zm419 14l203 0 0 323c68,-109 146,-216 218,-323l251 0 0 597 -222 0 0 -331 -11 17 -207 314 -251 0 0 -597 19 0z"/>
    <path class="fil2" d="M1917 1498l203 0 0 218 40 0c8,-33 20,-63 37,-90 19,-30 44,-57 75,-78 31,-22 67,-38 108,-49 41,-10 86,-15 136,-15 57,0 109,6 153,20 45,13 84,34 116,62 32,28 56,61 72,100 16,39 24,83 24,133 0,48 -8,91 -24,129 -16,38 -40,71 -72,99 -32,28 -71,48 -116,62 -45,14 -96,20 -153,20 -52,0 -99,-5 -140,-16 -42,-11 -79,-28 -110,-51 -59,-42 -95,-100 -109,-174l-37 0 0 227 -222 0 0 -597 19 0zm929 0l232 0 119 182c9,13 16,24 21,33l2 -3c7,-12 13,-23 19,-31l110 -181 241 0c-128,199 -257,398 -385,597l-257 0 153 -216 -295 -381 40 0zm-330 462c21,0 39,-3 55,-9 8,-3 15,-6 22,-10 6,-4 11,-8 16,-12 5,-5 9,-10 13,-16 4,-6 8,-12 11,-19 4,-7 7,-14 9,-22 2,-7 4,-14 5,-22l1 0c1,-7 2,-16 3,-24 0,-9 1,-18 1,-27 0,-10 -1,-20 -1,-28 -1,-9 -2,-18 -4,-26 -1,-8 -3,-16 -5,-23 -2,-7 -5,-15 -9,-23 -3,-7 -7,-13 -11,-19 -4,-6 -8,-11 -13,-16l0 0c-5,-5 -10,-9 -16,-12 -7,-4 -14,-8 -22,-11 -8,-3 -16,-5 -25,-6 -9,-2 -19,-3 -30,-3 -12,0 -24,1 -34,4 -10,2 -20,5 -29,9 -8,5 -16,10 -23,16 -7,5 -13,12 -18,19 -6,8 -11,16 -15,25 -4,9 -8,18 -10,28 -3,10 -5,21 -7,32 -1,10 -2,22 -2,34 0,12 1,24 2,34 2,11 4,21 7,31 2,10 6,19 10,28 4,8 9,16 14,23 6,7 12,14 18,19 7,5 15,10 24,14 9,4 18,7 29,9 10,2 22,3 34,3z"/>
   </g>
   <g>
    <polygon class="fil3" points="0,389 639,0 639,1306 0,1694 "/>
    <polygon class="fil3" points="1278,1694 639,1306 639,2611 1278,3000 "/>
   </g>
  </g>
 </g>
</svg>
